<svg xmlns="http://www.w3.org/2000/svg" xmlns:xlink="http://www.w3.org/1999/xlink" width="1920" height="217.081" viewBox="0 0 1920 217.081">
  <defs>
    <clipPath id="clip-path">
      <path id="Path_1162" data-name="Path 1162" d="M0,56.306H1920V-160.775H0Z" transform="translate(0 160.775)" fill="none"/>
    </clipPath>
  </defs>
  <g id="Group_1966" data-name="Group 1966" opacity="0.1" clip-path="url(#clip-path)">
    <g id="Group_1965" data-name="Group 1965" transform="translate(1.899 0.045)">
      <path id="Path_1161" data-name="Path 1161" d="M1347.17,54.513h-14.234V36.84h-26.259V30.355h-23.094V52.225h-15.189V33.916h-9.806V30.355h-5.06V2.892s10.636-5.178,9.491-10.552c-.951-4.45-11.389-8.647-24.045-9.663v-6.612s10.122-1.526,0-3.432c0,0,13.025-4,0-6.993l-4.428-42.849-6.326,42.086s-12.655,3.686,0,7.629c0,0-5.627,1.78.948,3.305l-.316,7.12s-20.88,1.908-24.36,10.807c0,0,0,5.976,9.491,9.41l-2.214,27.081h-12.34V37.6h-29.42V47.648H1142.8V44.342l-23.41,2.416,34.167-36.491s-38.6-5.467-97.438-6.23c0,0-139.622-2.116-198.361,7.615l-29.649,5.481,21.74,23.4H837.828v4.45l-50.3.254L780.567-70.344l13.6-3.305V-86.491l-13.6-1.271s-2.217-4.959,11.389-4.959l.947-9.663H781.514l3.165-14.621-6.645.636-5.379-39.287-5.695,39.414-10.438-1.4L760-103.019l-10.126.127v9.917s12.656,1.4,12.971,4.7L748.3-86.618v13.1l14.55,2.416-6.01,107.184H741.653v3.051H707.486V49.173h-9.807V-46.186H625.864V33.026h-65.17v16.02h-15.5V40.782l50.3-28.862L535.7-22.028V-26.86l-19.933-.127v3.178L442.057-5.118V-20.248h-7.593v2.035L340.507,4.8H286.723l-93.01-24.031v-1.78l-9.491.127V-5.627L110.828-23.68v-3.307H90.58v5.6l-57.261,32.8L63.374,29.466l-49.668.255V12.809H-20.781V2H-65.7V-59.663h-41.76v-2.416h16.133v-8.772h-27.522V-72.5h10.122v-5.213h-25.943v-2.925h19.3s15.185,0,15.817-6.357l-.951-30.77-20.561.127V-89.16s-3.48,4.958-10.126,0v-30.388H-145.11V-83.82h-6.01v-36.237h-16.452v30.642s-4.744,3.943-9.491,0v-28.1h-18.666v31.532s1.267,5.467,13.6,5.467h20.88v3.178h-29.42v5.086h18.031v2.035h-40.177v9.408h26.89v2.162h-49.033V4.164h-40.5V16.37h-12.971V30.611h-11.07V-38.3h-43.658v-6.1H-367.2v7.884h-54.416V32.9h-20.245V15.607H-465.9V6.962h-73.4l-22.143-8.9-9.491,14.495V61.379M50.046,9.584H84.687V4.911H95.6V-17.5ZM109.8-16.307l76.639,20.6H161.05L109.8-8.868ZM108.772-1.812V6.007h26.416ZM85.4,13.891v11.76H69.582L50.046,13.891ZM223.767,5.5h50.344L192.133-15.734l.709,12.159Zm317.479,9.23,33.929.1L540.833,36.47ZM495.6,4.863h23.964V-1.526Zm-139.04,0h47.454L433.91-2.765V-14.4Zm83.993.636h25.862L518.381-8.964v-7.056Zm136.907,5.467H540.208V5.722h-9.965V-15.83Z" transform="translate(570.932 155.657)" fill="none" stroke="#fff" stroke-width="1.13"/>
    </g>
  </g>
</svg>
