<?xml version="1.0" encoding="utf-8"?>
<!-- Generator: Adobe Illustrator 23.0.6, SVG Export Plug-In . SVG Version: 6.00 Build 0)  -->
<svg version="1.1" id="Layer_1" xmlns="http://www.w3.org/2000/svg" xmlns:xlink="http://www.w3.org/1999/xlink" x="0px" y="0px"
	 viewBox="0 0 914.2 228.4" style="enable-background:new 0 0 914.2 228.4;" xml:space="preserve">
<style type="text/css">
	.st0{enable-background:new    ;}
	.st1{fill:#FFFFFF;}
</style>
<title>Asset 2</title>
<g>
	<g id="Layer_2-2">
		<g class="st0">
			<path class="st1" d="M101.2,44.6c0.8-1.3,2.1-2.9,3.7-4.7c-4.6-0.1-11.4-0.5-20.5-1.2c-11.3-0.9-19-1.4-23.1-1.4
				c-4.1,0-9.9,0.4-17.2,1.1c-9.8,1.3-18.3,4.1-25.4,8.1c-7.1,4.1-11.3,9.2-12.7,15.4c-0.2,0.6-0.3,1.4-0.3,2.2
				c0,0.9,0.3,1.9,0.9,3.2c0.6,1.2,1.3,2.2,2.1,2.9c0.8,0.7,2.1,1.6,3.8,2.6c1.7,1,2.8,1.8,3.4,2.2c0.6,0.5,0.7,0.9,0.3,1.2
				c-0.4,0.3-0.7,0.5-1.1,0.5c-0.4,0-0.8-0.1-1.2-0.2c-3.5-1-6.5-3-8.9-5.8c-2.4-2.8-3.6-5.2-3.6-7.1c0-1.9,0.3-3.5,0.8-4.9
				c0-1.1,0.1-2,0.2-2.5c1.6-7.3,6.3-13,14.1-17.1c9.4-4.9,21-7.3,34.8-7.3c8.4,0,19.4,0.9,33,2.8c13.6,1.9,21.2,2.8,22.7,2.8
				c2.8-3.1,4.9-4.7,6.4-4.8c0.5-0.1,1.2-0.2,2.2-0.2c0.9,0,1.8,0.3,2.5,1c0.7,0.7,1.1,1.4,1.1,2.1c0,0.7-0.3,1.5-0.9,2.2
				c-0.6,0.7-1.9,1.8-3.8,3.2c-1.9,1.4-3.4,2.7-4.6,3.8c-5.4,5.4-8.1,10.1-8.1,14.1c0,1.8,0.4,3.2,1.1,4.3c0.7,1.1,0.7,1.9-0.2,2.3
				c-0.8,0.5-1.7,0.1-2.6-1c-1-0.8-1.6-3.5-1.6-7.9C98.4,52.2,99.3,48.2,101.2,44.6z M42.1,111.5c0.3,0,0.5,0.3,0.5,0.9
				s-0.7,1.7-2.2,3.1l-1.6,2.3c-2.8,4.2-4.8,6.7-6.1,7.5c-1.3,0.7-2.3,1.1-3.1,1.1c-0.8,0-2-0.2-3.6-0.5c-1.6-0.4-2.4-0.8-2.5-1.2
				c-0.1-0.4-0.1-1.3-0.1-2.6c0-1.3,1-4.6,2.9-9.7c2-5.1,4.2-10.2,6.8-15.1c4.8-9.3,9.5-18.3,14.3-27c0.9-1.8,1.4-3.1,1.4-4.1
				c0-1-0.2-1.7-0.5-2.3c0.6-3,3.2-6.8,7.7-11.5c4.5-4.7,8.6-7,12.3-7c1.7,0,3.7,0.6,6.1,1.9c2.4,1.3,3.4,3,3.1,5
				c-0.7-0.5-1.4-0.8-2-0.8c-4.3,0-9.8,4.2-16.3,12.7c-10.9,14.1-20.1,30.2-27.6,48.4c-0.8,2.2-1.2,3.6-1.2,4.4c0,0.8,0,1.3,0,1.5
				c0.4,1,1.3,1.3,2.6,0.9c1.3-0.4,2.5-1.3,3.6-2.8C39.3,113.2,41.1,111.5,42.1,111.5z"/>
			<path class="st1" d="M143.7,86.5l-38.5-5.1c-15.7,35.7-31,55.8-45.8,60.4c-2.7,0.9-5.1,1.4-7.1,1.4c-7.8,0-12.5-3.3-14.3-9.8
				c-0.1-0.4-0.2-0.9-0.2-1.3c0-0.5,0.1-1,0.2-1.7c0.2-0.7,0.5-0.9,1-0.7c0.5,0.2,1,1.2,1.6,2.9c0.9,3,2.9,4.9,5.9,5.7
				c2.3,0.4,4.3,0.6,6,0.6s3.2-0.2,4.4-0.6c15.1-4.8,29.2-24,42.4-57.7l-8.2-0.5c-1.5-0.1-2.8-0.2-4-0.2c-13.1,0-21.2,4.2-24.2,12.7
				c-0.5,1.1-0.8,2.2-0.8,3.3c0,1,0.3,2.1,0.9,3.1c0.6,1,0.4,1.7-0.5,1.9c-1,0.3-1.8-0.1-2.4-1c-1.1-2.1-1.7-4-1.7-5.7
				c0-6.3,1.2-11,3.5-14c2.3-3.1,5-5,8.1-6c3.7-1,7.9-1.6,12.4-1.6l9.5,0.9c3.3,0.3,6.5,0.8,9.5,1.4c2.5-6.6,5.5-15.5,9-26.7
				c-5.5,4.9-12.2,7.7-20.2,8.5c-1,0.1-1.6-0.3-1.6-1.1c-0.1-0.8,0.5-1.3,1.8-1.6c4.4-0.4,9-2.7,13.7-6.8c4.7-4.1,8.3-9,10.8-14.6
				c0.2-1.2,1.9-1.9,5.1-1.9c3.2,0,4.8,0.6,4.7,1.9c-0.6,1.6-2.9,7.5-6.9,17.9c-4,10.4-7.4,18.9-10.3,25.5c2.7,0.5,6.6,1.4,11.8,2.6
				c10.6,2.4,19.1,3.9,25.6,4.7c6-12.7,9.8-20.9,11.3-24.4c1.5-3.6,2.3-5.8,2.3-6.8s-0.2-1.7-0.5-2.2c0.3-2.9,2.6-6.7,6.8-11.4
				c4.2-4.7,8.1-7.1,11.9-7.1c1.7,0,3.6,0.6,6,1.8c2.3,1.2,3.5,2.7,3.5,4.6c0,0.4-0.3,0.5-0.8,0.2c-0.5-0.3-0.9-0.5-1.1-0.5
				c-2.6,0-5.6,1.8-9,5.5c-3.4,3.7-6.8,8.4-10.1,14.2c-5.1,9-9.6,17.9-13.5,26.7c8.9,0,14.8-1.9,17.9-5.6c0.5-0.9,1-1.1,1.6-0.4
				c0.5,0.7,0.3,1.7-0.5,2.9c-0.9,1.3-2.8,2.6-5.8,3.8c-3,1.2-7.8,1.9-14.3,1.9c-4.9,11.5-7.3,20.5-7.3,27c0,5.1,1.5,7.6,4.4,7.6
				s7.3-2.3,13.2-6.8c5.8-4.6,11.4-10.3,16.5-17.2c0.3-0.4,0.8-0.5,1.4-0.2c0.6,0.3,0.8,0.7,0.5,1.4c-0.3,0.7-1.1,2-2.4,4
				c-4.3,5.9-9.7,11.4-16,16.5c-4.7,3.6-9.7,5.4-15.2,5.4c-2.8,0-4.9-0.8-6.4-2.5c-1.5-1.7-2.3-3.2-2.5-4.7c-0.2-1.4-0.2-2.8-0.2-4
				c0-1.2,0.2-3.2,0.6-5.7C137.9,100.8,140.2,93.8,143.7,86.5z"/>
			<path class="st1" d="M257.7,41.4c0.7,0.1,1.4,0.3,1.9,0.9c0.6,0.5,1.4,2.2,2.6,5.1c1.2,2.9,1.8,5.3,1.8,7.2
				c0,1.9-0.2,3.9-0.7,6.1c-0.5,2.1-1.2,3.2-2.3,3.2c-1.8,0-3.2-2-4.3-6.1c-1.1-4.1-2-6.6-2.5-7.7c-2.9-6.1-6-10.6-9.3-13.3
				c-3-2.8-6.1-4.2-9.2-4.2c-1.3,0-2.7,0.3-4,0.8c-6.6,2.8-9.9,9.3-9.9,19.6c0,3.3,0.6,7.2,1.9,11.7c1.2,4.5,3.2,8.5,5.7,11.9
				c0.5,0.6,3.3,1.1,8.2,1.6c2.6,0.3,4.1,1.2,4.5,2.7c0.4,1.5-0.2,2.7-1.9,3.5c-0.9,1.1-4.5,0.8-10.7-0.9c-1.7-0.4-2.7-0.7-3.3-0.8
				c-5.6,0.1-11.9,1.3-18.9,3.7c-7,2.4-13.5,6-19.4,10.9c-5.9,4.9-8.8,10.3-8.8,16.2c0,4.4,1.8,8,5.4,10.8c3.6,2.7,9.4,4.1,17.5,4.1
				c8,0,17-1.2,26.9-3.7c9.9-2.5,17.6-5.2,23.3-8.1c5.6-2.9,11.2-7,16.7-12.3c5.5-5.3,8.2-9.8,8.2-13.7c0-0.6,0-1.1-0.1-1.6
				c-0.1-0.4,0-0.7,0.2-0.8c0.6-0.3,1.1-0.3,1.6,0.2c1.3,2.6,2,4.6,2,6.1c0,4.2-1.4,8.1-4.2,11.5c-4.9,5.9-10.3,10.6-16.5,14
				c-6.1,3.4-14.5,6.3-25.1,8.7c-10.6,2.4-19.4,3.6-26.5,3.6c-7,0-13-0.6-17.9-1.9c-4.9-1.2-9.2-3.7-12.8-7.5
				c-3.6-3.7-5.4-8.3-5.4-13.7c0-5.4,1.3-10,4-13.8c2.6-3.8,5.8-6.7,9.5-8.8c3.7-2.1,8.1-3.8,13.3-5.1c7.7-2.1,16.2-3.4,25.6-3.9
				c-6.7-7.7-10.7-16.5-12-26.5c-0.1-1.1-0.2-2.2-0.2-3.3c0-3.7,0.9-7.2,2.7-10.3c1.8-3.2,4.8-5.4,9.1-6.8c4.2-1.3,7.4-2,9.5-2
				c2.1,0,3.6,0.1,4.6,0.4c1,0.3,1.8,0.5,2.6,0.8c0.7,0.3,1.4,0.6,2.2,1.1c0.7,0.5,1.3,0.9,1.9,1.2c0.5,0.3,1.1,0.8,1.9,1.5
				c0.7,0.7,1.2,1.1,1.6,1.4c0.3,0.3,0.9,0.8,1.7,1.6c0.8,0.8,1.3,1.2,1.6,1.3c1.6,1.9,3.1,2.9,4.5,3.3
				C256.5,41.2,256.9,41.3,257.7,41.4z"/>
			<path class="st1" d="M414.1,38.5c0,2.3-0.9,4.9-2.8,7.9c-1.6,2.8-3.3,4.7-5.2,5.7c-1.9,1-2.9,0.9-2.9-0.3c0-0.1,0.6-0.7,1.7-1.9
				c3.4-3.2,5.1-5.8,5.1-7.9c0-4.4-4.4-6.7-13.2-6.7c-3.7,0-8.6,0.7-14.7,2.1c-6.1,1.4-12,3.6-17.7,6.8c-6.6,3.6-9.9,6.8-9.9,9.5
				c0,2.2,2,4.2,6.1,6.2c2.2,1,6.5,2.8,13,5.2c6.5,2.4,11.7,4.6,15.7,6.4c4,1.8,7.8,4.4,11.3,7.7c3.6,3.3,5.4,7,5.4,11
				c0,4-2.4,8.4-7.1,13.2c-7.2,6.9-16.7,12.7-28.2,17.3c-11.6,4.6-21.5,6.9-29.8,6.9c-16.4,0-24.5-4.6-24.5-13.8
				c0-9.2,5-17,15.1-23.4c8.3-5.7,17-8.5,26.1-8.5c2.2,0,3.2,0.4,2.9,1.1c-0.2,0.7-1.8,1.1-4.7,1.2c-2.9,0.1-6.6,1-11.2,2.9
				c-4.6,1.9-8.8,4.7-12.7,8.3c-5.2,4.7-7.8,9.3-7.8,14c0,2.9,1.4,5.5,4.2,7.8c2.8,2.3,8.1,3.4,16,3.4c7.9,0,15.6-1.2,23.3-3.7
				c16.6-5.5,26.9-11.5,31-18c1.7-2.4,2.5-4.4,2.5-6.1c0-4.8-2.9-8.5-8.7-11.2c-6.7-3.1-16.1-6.7-28.2-10.7
				c-4.7-1.6-8.6-3.6-11.9-6.1c-3.3-2.5-4.9-5.6-4.9-9.2c0-3.6,1.9-7.1,5.8-10.6c3.9-3.5,8.6-6.2,14-8.3c11.8-4.4,21.8-6.7,30-6.7
				C408.4,30,414.1,32.8,414.1,38.5z"/>
			<path class="st1" d="M494.8,41.4c0.7,0.1,1.4,0.3,1.9,0.9c0.6,0.5,1.4,2.2,2.6,5.1c1.2,2.9,1.8,5.3,1.8,7.2
				c0,1.9-0.2,3.9-0.7,6.1c-0.5,2.1-1.2,3.2-2.3,3.2c-1.8,0-3.2-2-4.3-6.1c-1.1-4.1-2-6.6-2.5-7.7c-2.9-6.1-6-10.6-9.3-13.3
				c-3-2.8-6.1-4.2-9.2-4.2c-1.3,0-2.7,0.3-4,0.8c-6.6,2.8-9.9,9.3-9.9,19.6c0,3.3,0.6,7.2,1.9,11.7c1.2,4.5,3.2,8.5,5.7,11.9
				c0.5,0.6,3.3,1.1,8.2,1.6c2.6,0.3,4.1,1.2,4.5,2.7c0.4,1.5-0.2,2.7-1.9,3.5c-0.9,1.1-4.5,0.8-10.7-0.9c-1.7-0.4-2.7-0.7-3.3-0.8
				c-5.6,0.1-11.9,1.3-18.9,3.7c-7,2.4-13.5,6-19.4,10.9c-5.9,4.9-8.8,10.3-8.8,16.2c0,4.4,1.8,8,5.4,10.8c3.6,2.7,9.4,4.1,17.5,4.1
				c8,0,17-1.2,26.9-3.7c9.9-2.5,17.6-5.2,23.3-8.1c5.6-2.9,11.2-7,16.7-12.3c5.5-5.3,8.2-9.8,8.2-13.7c0-0.6,0-1.1-0.1-1.6
				c-0.1-0.4,0-0.7,0.2-0.8c0.6-0.3,1.1-0.3,1.6,0.2c1.3,2.6,2,4.6,2,6.1c0,4.2-1.4,8.1-4.2,11.5c-4.9,5.9-10.3,10.6-16.5,14
				c-6.1,3.4-14.5,6.3-25.1,8.7c-10.6,2.4-19.4,3.6-26.5,3.6c-7,0-13-0.6-17.9-1.9c-4.9-1.2-9.2-3.7-12.8-7.5
				c-3.6-3.7-5.4-8.3-5.4-13.7c0-5.4,1.3-10,4-13.8c2.6-3.8,5.8-6.7,9.5-8.8c3.7-2.1,8.1-3.8,13.3-5.1c7.7-2.1,16.2-3.4,25.6-3.9
				c-6.7-7.7-10.7-16.5-12-26.5c-0.1-1.1-0.2-2.2-0.2-3.3c0-3.7,0.9-7.2,2.7-10.3c1.8-3.2,4.8-5.4,9.1-6.8c4.2-1.3,7.4-2,9.5-2
				c2.1,0,3.6,0.1,4.6,0.4c1,0.3,1.8,0.5,2.6,0.8c0.7,0.3,1.4,0.6,2.2,1.1c0.7,0.5,1.3,0.9,1.9,1.2c0.5,0.3,1.1,0.8,1.9,1.5
				c0.7,0.7,1.2,1.1,1.6,1.4c0.3,0.3,0.9,0.8,1.7,1.6c0.8,0.8,1.3,1.2,1.6,1.3c1.6,1.9,3.1,2.9,4.5,3.3
				C493.6,41.2,494.1,41.3,494.8,41.4z"/>
			<path class="st1" d="M603.8,42.2c0-5.8-3.1-8.7-9.2-8.7c-5.3,0-12.1,2.5-20.6,7.5c-8.4,5-17.1,12.5-26,22.7
				c-8.9,10.2-15.1,20.9-18.6,32.1c-1.5,4.5-2.2,8.6-2.2,12.3c0,3.8,1.1,7.1,3.3,9.9c3.8,5,10.1,7.5,18.8,7.6c0.6,0,1.2,0,1.7,0
				c9.6,0,20-2.5,31.2-7.4c11.2-4.9,20.1-12.1,26.9-21.7c0.5-0.7,1.1-0.9,1.6-0.5c0.6,0.4,0.9,0.8,0.9,1.1s-0.1,0.6-0.3,0.8
				c-7.7,10.5-17.1,18.3-28.2,23.6c-11.2,5.3-22,7.9-32.4,7.9c-11,0-19.2-3.1-24.8-9.3c-3.6-4-5.4-9.3-5.4-15.8
				c0-11,4.1-22.8,12.4-35.4c11.3-17.2,24.9-29.1,41-35.7c6.2-2.5,12.2-3.7,17.9-3.7c7,0,12.1,1.7,15.1,5c2,2.3,2.9,4.9,2.9,7.9
				c0,5.7-3,11.5-9,17.5c-6,6-12.7,10.8-19.9,14.4c-7.3,3.6-13.6,5.6-19,6.1c-2.2,0.2-3.2-0.4-3.1-1.7c0.1-1.9,1.4-2.9,3.9-3.1
				c8.3-0.7,15.9-3.2,22.8-7.5c6.9-4.3,12.3-10,16-17.2C602.9,48.1,603.8,45.2,603.8,42.2z"/>
			<path class="st1" d="M605.5,62.6c-0.2-1.3-0.3-2.2-0.3-2.5c1.4-7.8,9.1-15.2,22.8-22.2c10.9-5.1,23.7-7.6,38.5-7.6
				c9.1,0,18.1,1.2,27,3.7c6,2.1,10.6,5,13.7,8.8c3.1,3.8,4.7,7.7,4.7,11.6c0,6-2.4,11.3-7.1,15.9c-4.8,4.6-10.1,8.1-16,10.6
				c-13.1,5.7-28.1,8.8-45,9.5c1.3,1.7,3.5,4.4,6.5,8.1c3,3.8,5.3,6.6,6.8,8.5c1.6,1.9,3.8,4.5,6.8,7.8c2.9,3.4,5.4,5.9,7.5,7.8
				c2,1.8,4.6,4,7.7,6.5c3.1,2.5,6.1,4.5,8.8,6c9.7,5.2,18.2,7.8,25.5,7.8l5.3-0.5c3.5-0.6,6.3-2,8.4-4.3c2.1-2.2,3.1-4.7,3.1-7.4
				c0-1-0.1-2.1-0.4-3.3c-0.3-1.2,0.1-1.8,1-1.8c1,0.1,1.7,0.9,2.1,2.3c0.4,1.4,0.5,3.1,0.5,5.2c0,2.1-0.5,4.4-1.6,7.1
				c-1.1,3.7-4.3,6.6-9.5,8.5c-3.3,1.2-6.4,1.9-9.3,1.9c-8.7,0-17.5-2.4-26.4-7.3c-5.9-3.3-11.2-7.4-15.9-12.3
				c-4.7-4.9-8.6-9.3-11.8-13.3c-3.2-3.9-6.7-8.8-10.6-14.7c-3.9-5.8-6.6-9.8-8.1-11.7l-1.1-0.2c-7.9,14.5-11.8,23.2-11.8,26.2
				c0,1.6,0.7,2.3,2,2.3c1.3,0,3.2-1.4,5.4-4.3c2.3-2.8,3.8-4.2,4.7-4.1c0.6,0.6-0.1,2-2,4c-0.2,0.2-0.6,0.8-1.1,1.6
				c-0.5,0.9-1,1.6-1.3,2.1c-0.4,0.5-0.9,1.2-1.5,2c-0.6,0.8-1.2,1.5-1.7,2c-0.5,0.5-1.1,1-1.7,1.6c-1.2,1-2.3,1.6-3.3,1.6
				c-0.9,0-2.2-0.2-3.9-0.5c-1.7-0.4-2.5-1.1-2.5-2.1c0-4.7,4.2-15.5,12.7-32.4c-3.4-0.3-5.1-1.6-5.1-3.7c0-0.4,0.1-0.9,0.2-1.6
				c0.7-1.8,2-2.6,4-2.6c1.9,0,3.4,0.5,4.6,1.4c0.8-1.7,1.8-3.5,2.9-5.6c4-7.2,6.1-11.8,6.1-13.8c0-0.5-0.1-1-0.2-1.6
				c0.4-2.9,2.9-6.7,7.5-11.4c4.6-4.7,8.8-7.1,12.5-7.1c1.2,0,2.9,0.5,5,1.4c2.1,0.9,3.3,2.2,3.7,3.9c0.1,0.7,0.1,1.2,0.1,1.3
				c-0.1,0.2-0.3,0.1-0.9-0.1c-0.5-0.2-0.8-0.3-0.9-0.3c-7.2,0-17.6,11.7-31,35.2c1.2,0.5,2.5,0.8,3.6,0.8c1.2,0,2.2-0.1,3-0.2
				c10.6-1.1,20.9-3.6,31-7.5c10.1-3.8,17.9-8.6,23.5-14.4c3.6-3.5,5.4-7.2,5.4-11.2c0-11.6-11.9-17.4-35.5-17.4
				c-13.6,0-26.5,2.1-38.8,6.2c-6.4,2.3-11.9,5.3-16.4,9.2c-4.5,3.8-7.2,8.2-8,13c-0.1,0.5-0.2,1.2-0.2,2c0,0.8,0.3,1.8,1,3
				c0.7,1.2,1.5,2.1,2.4,2.7c0.9,0.6,2.2,1.3,4,2.2c1.7,0.8,2.8,1.5,3.4,1.9c0.6,0.4,0.7,0.9,0.4,1.3s-1,0.6-2,0.4
				c-3.2-0.5-6.2-2.1-9-4.8c-2.8-2.7-4.2-5.6-4.2-8.7C605.2,64.4,605.3,63.5,605.5,62.6z"/>
			<path class="st1" d="M772.8,41.4c0.7,0.1,1.4,0.3,1.9,0.9c0.6,0.5,1.4,2.2,2.6,5.1c1.2,2.9,1.8,5.3,1.8,7.2
				c0,1.9-0.2,3.9-0.7,6.1c-0.5,2.1-1.2,3.2-2.3,3.2c-1.8,0-3.2-2-4.3-6.1c-1.1-4.1-2-6.6-2.5-7.7c-2.9-6.1-6-10.6-9.3-13.3
				c-3-2.8-6.1-4.2-9.2-4.2c-1.3,0-2.7,0.3-4,0.8c-6.6,2.8-9.9,9.3-9.9,19.6c0,3.3,0.6,7.2,1.9,11.7c1.2,4.5,3.2,8.5,5.7,11.9
				c0.5,0.6,3.3,1.1,8.2,1.6c2.6,0.3,4.1,1.2,4.5,2.7c0.4,1.5-0.2,2.7-1.9,3.5c-0.9,1.1-4.5,0.8-10.7-0.9c-1.7-0.4-2.7-0.7-3.3-0.8
				c-5.6,0.1-11.9,1.3-18.9,3.7c-7,2.4-13.5,6-19.4,10.9c-5.9,4.9-8.8,10.3-8.8,16.2c0,4.4,1.8,8,5.4,10.8c3.6,2.7,9.4,4.1,17.5,4.1
				c8,0,17-1.2,26.9-3.7c9.9-2.5,17.6-5.2,23.3-8.1c5.6-2.9,11.2-7,16.7-12.3c5.5-5.3,8.2-9.8,8.2-13.7c0-0.6,0-1.1-0.1-1.6
				c-0.1-0.4,0-0.7,0.2-0.8c0.6-0.3,1.1-0.3,1.6,0.2c1.3,2.6,2,4.6,2,6.1c0,4.2-1.4,8.1-4.2,11.5c-4.9,5.9-10.3,10.6-16.5,14
				c-6.1,3.4-14.5,6.3-25.1,8.7c-10.6,2.4-19.4,3.6-26.5,3.6c-7,0-13-0.6-17.9-1.9c-4.9-1.2-9.2-3.7-12.8-7.5
				c-3.6-3.7-5.4-8.3-5.4-13.7c0-5.4,1.3-10,4-13.8c2.6-3.8,5.8-6.7,9.5-8.8c3.7-2.1,8.1-3.8,13.3-5.1c7.7-2.1,16.2-3.4,25.6-3.9
				c-6.7-7.7-10.7-16.5-12-26.5c-0.1-1.1-0.2-2.2-0.2-3.3c0-3.7,0.9-7.2,2.7-10.3c1.8-3.2,4.8-5.4,9.1-6.8c4.2-1.3,7.4-2,9.5-2
				c2.1,0,3.6,0.1,4.6,0.4c1,0.3,1.8,0.5,2.6,0.8c0.7,0.3,1.4,0.6,2.2,1.1c0.7,0.5,1.3,0.9,1.9,1.2c0.5,0.3,1.1,0.8,1.9,1.5
				c0.7,0.7,1.2,1.1,1.6,1.4c0.3,0.3,0.9,0.8,1.7,1.6c0.8,0.8,1.3,1.2,1.6,1.3c1.6,1.9,3.1,2.9,4.5,3.3
				C771.6,41.2,772.1,41.3,772.8,41.4z"/>
			<path class="st1" d="M896.4,44.6c0.8-1.3,2.1-2.9,3.7-4.7c-4.6-0.1-11.4-0.5-20.5-1.2c-11.3-0.9-19-1.4-23.1-1.4
				c-4.1,0-9.9,0.4-17.2,1.1c-9.8,1.3-18.3,4.1-25.4,8.1c-7.1,4.1-11.3,9.2-12.7,15.4c-0.2,0.6-0.3,1.4-0.3,2.2
				c0,0.9,0.3,1.9,0.9,3.2c0.6,1.2,1.3,2.2,2.1,2.9c0.8,0.7,2.1,1.6,3.8,2.6c1.7,1,2.8,1.8,3.4,2.2c0.6,0.5,0.7,0.9,0.3,1.2
				c-0.4,0.3-0.7,0.5-1.1,0.5c-0.4,0-0.8-0.1-1.2-0.2c-3.5-1-6.5-3-8.9-5.8c-2.4-2.8-3.6-5.2-3.6-7.1c0-1.9,0.3-3.5,0.8-4.9
				c0-1.1,0.1-2,0.2-2.5c1.6-7.3,6.3-13,14.1-17.1c9.4-4.9,21-7.3,34.8-7.3c8.4,0,19.4,0.9,33,2.8c13.6,1.9,21.2,2.8,22.7,2.8
				c2.8-3.1,4.9-4.7,6.4-4.8c0.5-0.1,1.2-0.2,2.2-0.2c0.9,0,1.8,0.3,2.5,1c0.7,0.7,1.1,1.4,1.1,2.1c0,0.7-0.3,1.5-0.9,2.2
				c-0.6,0.7-1.9,1.8-3.8,3.2c-1.9,1.4-3.4,2.7-4.6,3.8c-5.4,5.4-8.1,10.1-8.1,14.1c0,1.8,0.4,3.2,1.1,4.3c0.7,1.1,0.7,1.9-0.2,2.3
				c-0.8,0.5-1.7,0.1-2.6-1c-1-0.8-1.6-3.5-1.6-7.9C893.6,52.2,894.5,48.2,896.4,44.6z M837.2,111.5c0.3,0,0.5,0.3,0.5,0.9
				s-0.7,1.7-2.2,3.1l-1.6,2.3c-2.8,4.2-4.8,6.7-6.1,7.5c-1.3,0.7-2.3,1.1-3.1,1.1s-2-0.2-3.6-0.5c-1.6-0.4-2.4-0.8-2.5-1.2
				c-0.1-0.4-0.1-1.3-0.1-2.6c0-1.3,1-4.6,2.9-9.7c2-5.1,4.2-10.2,6.8-15.1c4.8-9.3,9.5-18.3,14.3-27c0.9-1.8,1.4-3.1,1.4-4.1
				c0-1-0.2-1.7-0.5-2.3c0.6-3,3.2-6.8,7.7-11.5c4.5-4.7,8.6-7,12.3-7c1.7,0,3.7,0.6,6.1,1.9c2.4,1.3,3.4,3,3.1,5
				c-0.7-0.5-1.4-0.8-2-0.8c-4.3,0-9.8,4.2-16.3,12.7c-10.9,14.1-20.1,30.2-27.6,48.4c-0.8,2.2-1.2,3.6-1.2,4.4c0,0.8,0,1.3,0,1.5
				c0.4,1,1.3,1.3,2.6,0.9c1.3-0.4,2.5-1.3,3.6-2.8C834.5,113.2,836.3,111.5,837.2,111.5z"/>
		</g>
		<g class="st0">
			<path class="st1" d="M846.9,214v-49.6c8-0.5,18.4-1,26.1-1c28.7,0,36.6,6.4,36.6,14.7c0,5.7-3.8,8.9-9.3,10.8
				c6.3,1.8,10.7,5.1,10.7,11c0,8.6-9.3,15-38,15C865.3,215,854.9,214.5,846.9,214z M892.5,180.2c0-2.5-4.3-4.1-18-4.1
				c-4.1,0-7.7,0.1-10.7,0.3v7.3c3,0.1,6.4,0.1,10.7,0.1C888.9,183.8,892.5,182.5,892.5,180.2z M893.9,198.3c0-2.3-3.6-3.6-19.4-3.6
				c-4.2,0-7.7,0-10.7,0.1v7.3c3,0.2,6.6,0.3,10.7,0.3C889.6,202.4,893.9,200.8,893.9,198.3z"/>
		</g>
		<g class="st0">
			<path class="st1" d="M778.4,163.2c8-0.6,15.3-1,21.7-1c34,0,47.8,11.1,47.8,25.8s-13.8,25.8-47.8,25.8c-6.4,0-13.7-0.4-21.7-1
				V163.2z M830.2,188c0-8.7-11.1-12.6-28-12.6c-2.3,0-4.7,0.1-6.9,0.2v24.7c2.2,0.1,4.5,0.2,6.9,0.2
				C819.1,200.6,830.2,196.7,830.2,188z"/>
		</g>
		<g class="st0">
			<path class="st1" d="M741.8,199.3c1.2,1.4,1.8,3.1,1.8,5.3c0,2.2-0.6,4.1-1.8,5.6c-1.2,1.5-2.8,2.2-4.9,2.2
				c-1.3,0-2.4-0.2-3.2-0.7c-0.5-0.3-1-0.8-1.5-1.5v1.8h-4.1v-19.4h4.1v6.9c0.5-0.7,1.1-1.2,1.7-1.5c0.8-0.4,1.7-0.7,2.9-0.7
				C739,197.2,740.6,197.9,741.8,199.3z M738.4,208c0.6-0.8,0.9-1.8,0.9-3.1c0-1-0.1-1.9-0.4-2.5c-0.6-1.3-1.6-1.9-3.1-1.9
				c-1.5,0-2.6,0.6-3.1,1.9c-0.3,0.7-0.4,1.5-0.4,2.6c0,1.2,0.3,2.3,0.9,3.1c0.6,0.8,1.5,1.2,2.8,1.2
				C736.9,209.2,737.8,208.8,738.4,208z"/>
			<path class="st1" d="M747.1,214.7l0.5,0c0.4,0,0.8,0,1.2,0s0.7-0.1,0.9-0.3c0.2-0.2,0.5-0.5,0.7-0.9c0.2-0.5,0.3-0.8,0.3-0.9
				l-5.8-15h4.6l3.5,10.6l3.3-10.6h4.4l-5.4,14.2c-1,2.7-1.9,4.4-2.5,5.1s-1.8,1-3.7,1c-0.4,0-0.7,0-0.9,0c-0.2,0-0.6,0-1,0V214.7z"
				/>
		</g>
	</g>
</g>
</svg>
