<svg xmlns="http://www.w3.org/2000/svg" xmlns:xlink="http://www.w3.org/1999/xlink" width="771.644" height="217.081" viewBox="0 0 771.644 217.081">
  <defs>
    <clipPath id="clip-path">
      <path id="Path_1162" data-name="Path 1162" d="M0,56.306H771.644V-160.775H0Z" transform="translate(0 160.775)" fill="none"/>
    </clipPath>
  </defs>
  <g id="Group_226" data-name="Group 226" transform="translate(-1 3)">
    <g id="Group_1966" data-name="Group 1966" transform="translate(1 -3)" opacity="0.05" clip-path="url(#clip-path)">
      <g id="Group_1965" data-name="Group 1965" transform="translate(0.763 0.045)">
        <path id="Path_1161" data-name="Path 1161" d="M199.949,54.513h-5.721V36.84H183.675V30.355h-9.281V52.225h-6.1V33.916h-3.941V30.355h-2.033V2.892s4.275-5.178,3.814-10.552c-.382-4.45-4.577-8.647-9.663-9.663v-6.612s4.068-1.526,0-3.432c0,0,5.235-4,0-6.993l-1.78-42.849-2.542,42.086s-5.086,3.686,0,7.629c0,0-2.262,1.78.381,3.305l-.127,7.12s-8.392,1.908-9.79,10.807c0,0,0,5.976,3.814,9.41l-.89,27.081h-4.959V37.6H128.748V47.648H117.813V44.342L108.4,46.758l13.732-36.491S106.625,4.8,82.976,4.037c0,0-56.114-2.116-79.721,7.615L-8.661,17.133l8.737,23.4H-4.755v4.45l-20.217.254-2.8-115.576,5.467-3.305V-86.491l-5.467-1.271s-.891-4.959,4.577-4.959l.381-9.663h-4.577l1.272-14.621-2.671.636-2.162-39.287-2.289,39.414-4.2-1.4,1.4,14.623-4.07.127v9.917s5.086,1.4,5.213,4.7l-5.848,1.653v13.1l5.848,2.416L-37.3,36.078h-6.1v3.051H-57.139V49.173H-61.08V-46.186H-89.942V33.026h-26.191v16.02h-6.23V40.782l20.215-28.862-24.03-33.947V-26.86l-8.011-.127v3.178L-163.814-5.118V-20.248h-3.051v2.035L-204.627,4.8h-21.616l-37.381-24.031v-1.78l-3.814.127V-5.627l-29.5-18.054v-3.307h-8.138v5.6l-23.013,32.8,12.079,18.054-19.962.255V12.809h-13.86V2h-18.054V-59.663h-16.783v-2.416h6.484v-8.772h-11.061V-72.5h4.068v-5.213H-395.6v-2.925h7.757s6.1,0,6.357-6.357l-.382-30.77-8.263.127V-89.16s-1.4,4.958-4.07,0v-30.388h-5.594V-83.82h-2.416v-36.237h-6.612v30.642s-1.907,3.943-3.814,0v-28.1h-7.5v31.532s.509,5.467,5.467,5.467h8.392v3.178H-418.1v5.086h7.247v2.035H-427v9.408H-416.2v2.162H-435.9V4.164h-16.275V16.37h-5.213V30.611h-4.449V-38.3h-17.546v-6.1h-9.663v7.884h-21.87V32.9h-8.136V15.607h-9.663V6.962h-29.5l-8.9-8.9-3.814,14.495V61.379m249.57-51.8h13.922V4.911h4.387V-17.5Zm24.015-25.89,30.8,20.6h-10.2l-20.6-13.159Zm-.413,14.495V6.007h10.617Zm-9.393,15.7v11.76h-6.357l-7.852-11.76Zm55.61-8.392h20.233l-32.947-21.233.285,12.159Zm127.594,9.23,13.636.1-13.8,21.637Zm-18.344-9.866h9.631V-1.526Zm-55.88,0H-179.1l12.014-7.629V-14.4Zm33.757.636h10.394L-133.14-8.964v-7.056Zm55.023,5.467h-14.973V5.722h-4V-15.83Z" transform="translate(570.932 155.657)" fill="none" stroke="#fff" stroke-width="1.13"/>
      </g>
    </g>
  </g>
</svg>
