<svg id="clock-circular-outline" xmlns="http://www.w3.org/2000/svg" width="14.48" height="14.48" viewBox="0 0 14.48 14.48">
  <g id="Group_207" data-name="Group 207">
    <path id="Path_13" data-name="Path 13" d="M7.24,0a7.24,7.24,0,1,0,7.24,7.24A7.248,7.248,0,0,0,7.24,0Zm0,12.94a5.7,5.7,0,1,1,5.7-5.7A5.706,5.706,0,0,1,7.24,12.94Z" fill="#fff"/>
    <path id="Path_14" data-name="Path 14" d="M48.512,21.338H45.258V17.426a.6.6,0,1,0-1.192,0v4.508a.6.6,0,0,0,.6.6h3.85a.6.6,0,0,0,0-1.192Z" transform="translate(-37.499 -14.322)" fill="#fff"/>
  </g>
</svg>
